<svg width="200" height="200" viewBox="0 0 200 200" role="img" aria-labelledby="oag-title oag-desc" xmlns="http://www.w3.org/2000/svg">
  <title id="oag-title">ONIZUKA Memory Brand Mark</title>
  <desc id="oag-desc">A compact ONIZUKA Memory mark tuned to the Aurora neutral palette</desc>
  <defs>
    <linearGradient id="bg-gradient" x1="0%" y1="0%" x2="100%" y2="100%">
      <stop offset="0%" stop-color="#F2FAFC"/>
      <stop offset="100%" stop-color="#DCF0F5"/>
    </linearGradient>
    <linearGradient id="mark-gradient" x1="0%" y1="0%" x2="100%" y2="100%">
      <stop offset="0%" stop-color="#13B3CE" stop-opacity="0.96"/>
      <stop offset="100%" stop-color="#FFCC4F" stop-opacity="0.96"/>
    </linearGradient>
  </defs>
  <rect x="8" y="8" width="184" height="184" rx="36" fill="url(#bg-gradient)" stroke="#BDD8E0" stroke-width="2"/>
  <circle cx="70" cy="70" r="34" fill="url(#mark-gradient)" opacity="0.96"/>
  <path d="M62 100C62 74.6 82.6 54 108 54h12l24 92H128L106.7 74h-12.3c-9.5 0-17.2 7.7-17.2 17.2V146H62V100z" fill="#0C1E24"/>
  <path d="M128 146c13.8 0 25-11.2 25-25s-11.2-25-25-25h-18v50h18z" fill="#1A3038"/>
  <path d="M70 58c-14 2-25 11-28 25" fill="none" stroke="#F2FAFC" stroke-width="6" stroke-linecap="round"/>
  <path d="M54 86c3 14 14 24 27 24" fill="none" stroke="#F2FAFC" stroke-width="6" stroke-linecap="round"/>
  <circle cx="102" cy="132" r="4" fill="#FFCC4F"/>
</svg>
