<svg width="200" height="200" viewBox="0 0 200 200" role="img" aria-labelledby="oag-title oag-desc" xmlns="http://www.w3.org/2000/svg">
  <title id="oag-title">ONIZUKA Memory Brand Mark</title>
  <desc id="oag-desc">A compact geometric mark used as the memory site emblem</desc>
  <defs>
    <linearGradient id="mark-gradient" x1="0%" y1="0%" x2="100%" y2="100%">
      <stop offset="0%" stop-color="#13b3ce" stop-opacity="0.95"/>
      <stop offset="100%" stop-color="#ffcc4f" stop-opacity="0.95"/>
    </linearGradient>
  </defs>
  <rect x="8" y="8" width="184" height="184" rx="36" fill="#ffffff"/>
  <circle cx="70" cy="70" r="34" fill="url(#mark-gradient)" opacity="0.95"/>
  <path d="M62 100C62 74.6 82.6 54 108 54h12l24 92H128L106.7 74h-12.3c-9.5 0-17.2 7.7-17.2 17.2V146H62V100z" fill="#101926"/>
  <path d="M128 146c13.8 0 25-11.2 25-25s-11.2-25-25-25h-18v50h18z" fill="#0f1f3a"/>
  <path d="M70 58c-14 2-25 11-28 25" fill="none" stroke="#fff" stroke-width="6" stroke-linecap="round"/>
  <path d="M54 86c3 14 14 24 27 24" fill="none" stroke="#fff" stroke-width="6" stroke-linecap="round"/>
  <circle cx="102" cy="132" r="4" fill="#13b3ce"/>
</svg>
