<svg xmlns="http://www.w3.org/2000/svg" width="1900" height="1180" viewBox="0 0 1900 1180" role="img" aria-labelledby="title desc">
    <title id="title">Activity pulse report for 2026-03-08 through 2026-03-21</title>
    <desc id="desc">A styled chart comparing company repository commit volume and gameplay child repository commit volume for each day from March 8 through March 21, 2026.</desc>
    <defs>
      <linearGradient id="bg4" x1="0" y1="0" x2="1" y2="1">
        <stop offset="0%" stop-color="#f8fcff" />
        <stop offset="52%" stop-color="#eff8ff" />
        <stop offset="100%" stop-color="#fff5e5" />
      </linearGradient>
      <linearGradient id="companyFill4" x1="0" y1="0" x2="0" y2="1">
        <stop offset="0%" stop-color="#ffd36e" />
        <stop offset="100%" stop-color="#f5a91e" />
      </linearGradient>
      <linearGradient id="gameFill4" x1="0" y1="0" x2="0" y2="1">
        <stop offset="0%" stop-color="#18c7e2" />
        <stop offset="100%" stop-color="#0c8099" />
      </linearGradient>
      <filter id="shadow4" x="-20%" y="-20%" width="140%" height="140%">
        <feDropShadow dx="0" dy="18" stdDeviation="18" flood-color="#6f9cb6" flood-opacity="0.18" />
      </filter>
      <pattern id="dots4" patternUnits="userSpaceOnUse" width="22" height="22">
        <circle cx="2" cy="2" r="1.1" fill="#d9e8f1" opacity="0.78" />
      </pattern>
    </defs>
    <rect width="1900" height="1180" fill="url(#bg4)" />
    <rect width="1900" height="1180" fill="url(#dots4)" opacity="0.26" />
    <circle cx="1605" cy="96" r="250" fill="#15b7d2" opacity="0.08" />
    <circle cx="160" cy="1010" r="240" fill="#ffd36e" opacity="0.12" />
    <g filter="url(#shadow4)">
      <rect x="48" y="42" width="1804" height="1092" rx="42" fill="rgba(255,255,255,0.76)" stroke="rgba(16,32,51,0.08)" />
    </g>
    <text x="130" y="112" font-size="30" font-weight="860" fill="#54697a" font-family="'Segoe UI Variable','Aptos','Yu Gothic UI',sans-serif">ONIZUKA Game AGI Co. Memory Report</text>
    <text x="130" y="166" font-size="56" font-weight="920" fill="#102033" font-family="'Segoe UI Variable','Aptos','Yu Gothic UI',sans-serif">2026-03-08 -&gt; 2026-03-21 Activity Pulse</text>
    <text x="130" y="212" font-size="24" fill="#54697a" font-family="'Segoe UI Variable','Aptos','Yu Gothic UI',sans-serif">Foundation, operating-system pivot, and child-repo delivery across a 14-day span</text>
    
    <g>
      <rect x="130" y="238" width="270" height="126" rx="28" fill="rgba(255,255,255,0.92)" stroke="rgba(16,32,51,0.08)" />
      <rect x="150" y="258" width="12" height="86" rx="6" fill="#f7b62f" />
      <text x="182" y="282" font-size="20" font-weight="760" fill="#54697a">Company repo commits</text>
      <text x="182" y="326" font-size="48" font-weight="900" fill="#102033">190</text>
      <text x="182" y="352" font-size="17" fill="#54697a">origin/main only</text>
    </g>
  
    <g>
      <rect x="430" y="238" width="270" height="126" rx="28" fill="rgba(255,255,255,0.92)" stroke="rgba(16,32,51,0.08)" />
      <rect x="450" y="258" width="12" height="86" rx="6" fill="#18b6d1" />
      <text x="482" y="282" font-size="20" font-weight="760" fill="#54697a">Gameplay repo commits</text>
      <text x="482" y="326" font-size="48" font-weight="900" fill="#102033">39</text>
      <text x="482" y="352" font-size="17" fill="#54697a">4 child repos</text>
    </g>
  
    <g>
      <rect x="730" y="238" width="270" height="126" rx="28" fill="rgba(255,255,255,0.92)" stroke="rgba(16,32,51,0.08)" />
      <rect x="750" y="258" width="12" height="86" rx="6" fill="#77e3d3" />
      <text x="782" y="282" font-size="20" font-weight="760" fill="#54697a">Documented days</text>
      <text x="782" y="326" font-size="48" font-weight="900" fill="#102033">11 / 14</text>
      <text x="782" y="352" font-size="17" fill="#54697a">daily folders found</text>
    </g>
  
    <g>
      <rect x="1030" y="238" width="270" height="126" rx="28" fill="rgba(255,255,255,0.92)" stroke="rgba(16,32,51,0.08)" />
      <rect x="1050" y="258" width="12" height="86" rx="6" fill="#102033" />
      <text x="1082" y="282" font-size="20" font-weight="760" fill="#54697a">No-record days</text>
      <text x="1082" y="326" font-size="48" font-weight="900" fill="#102033">3</text>
      <text x="1082" y="352" font-size="17" fill="#54697a">03/18, 03/20, 03/21</text>
    </g>
  
    <text x="130" y="396" font-size="27" font-weight="920" fill="#102033" font-family="'Segoe UI Variable','Aptos','Yu Gothic UI',sans-serif">Daily tracked activity</text>
    <text x="130" y="422" font-size="18" fill="#54697a" font-family="'Segoe UI Variable','Aptos','Yu Gothic UI',sans-serif">Stacked bars: cyan = gameplay child repos, amber = company repo</text>
    
      <line x1="130" y1="812" x2="1410" y2="812" stroke="#b9cad5" stroke-width="2.2" />
      <text x="112" y="819" text-anchor="end" font-size="18" fill="#54697a">0</text>
    
      <line x1="130" y1="737.2" x2="1410" y2="737.2" stroke="#d6e4ec" stroke-width="1.2" />
      <text x="112" y="744.2" text-anchor="end" font-size="18" fill="#54697a">10</text>
    
      <line x1="130" y1="662.4" x2="1410" y2="662.4" stroke="#d6e4ec" stroke-width="1.2" />
      <text x="112" y="669.4" text-anchor="end" font-size="18" fill="#54697a">20</text>
    
      <line x1="130" y1="587.6" x2="1410" y2="587.6" stroke="#d6e4ec" stroke-width="1.2" />
      <text x="112" y="594.6" text-anchor="end" font-size="18" fill="#54697a">30</text>
    
      <line x1="130" y1="512.8" x2="1410" y2="512.8" stroke="#d6e4ec" stroke-width="1.2" />
      <text x="112" y="519.8" text-anchor="end" font-size="18" fill="#54697a">40</text>
    
      <line x1="130" y1="438" x2="1410" y2="438" stroke="#d6e4ec" stroke-width="1.2" />
      <text x="112" y="445" text-anchor="end" font-size="18" fill="#54697a">50</text>
    
    <g><rect x="146.71428571428572" y="438" width="58" height="374" rx="24" fill="rgba(255,255,255,0.58)" stroke="rgba(16,32,51,0.08)" /><rect x="146.71428571428572" y="737.2" width="58" height="74.8" rx="24" fill="url(#companyFill4)" /><text x="175.71428571428572" y="725.2" text-anchor="middle" font-size="18" font-weight="900" fill="#102033">10</text><text x="175.71428571428572" y="846" text-anchor="middle" font-size="18" font-weight="820" fill="#102033">03/08</text><text x="175.71428571428572" y="868" text-anchor="middle" font-size="13" fill="#54697a">2026-03-08</text><rect x="116.71428571428572" y="884" width="118" height="30" rx="15" fill="#c7ebff" /><text x="175.71428571428572" y="904" text-anchor="middle" font-size="12.5" font-weight="800" fill="#102033">Foundation</text></g><g><rect x="238.14285714285717" y="438" width="58" height="374" rx="24" fill="rgba(255,255,255,0.58)" stroke="rgba(16,32,51,0.08)" /><line x1="246.14285714285717" y1="794" x2="288.14285714285717" y2="794" stroke="#b9cad5" stroke-width="2" stroke-dasharray="6 6" /><text x="267.14285714285717" y="782" text-anchor="middle" font-size="18" font-weight="900" fill="#54697a">0</text><text x="267.14285714285717" y="846" text-anchor="middle" font-size="18" font-weight="820" fill="#102033">03/09</text><text x="267.14285714285717" y="868" text-anchor="middle" font-size="13" fill="#54697a">2026-03-09</text></g><g><rect x="329.5714285714286" y="438" width="58" height="374" rx="24" fill="rgba(255,255,255,0.58)" stroke="rgba(16,32,51,0.08)" /><line x1="337.5714285714286" y1="794" x2="379.5714285714286" y2="794" stroke="#b9cad5" stroke-width="2" stroke-dasharray="6 6" /><text x="358.5714285714286" y="782" text-anchor="middle" font-size="18" font-weight="900" fill="#54697a">0</text><text x="358.5714285714286" y="846" text-anchor="middle" font-size="18" font-weight="820" fill="#102033">03/10</text><text x="358.5714285714286" y="868" text-anchor="middle" font-size="13" fill="#54697a">2026-03-10</text></g><g><rect x="421" y="438" width="58" height="374" rx="24" fill="rgba(255,255,255,0.58)" stroke="rgba(16,32,51,0.08)" /><line x1="429" y1="794" x2="471" y2="794" stroke="#b9cad5" stroke-width="2" stroke-dasharray="6 6" /><text x="450" y="782" text-anchor="middle" font-size="18" font-weight="900" fill="#54697a">0</text><text x="450" y="846" text-anchor="middle" font-size="18" font-weight="820" fill="#102033">03/11</text><text x="450" y="868" text-anchor="middle" font-size="13" fill="#54697a">2026-03-11</text></g><g><rect x="512.4285714285714" y="438" width="58" height="374" rx="24" fill="rgba(255,255,255,0.58)" stroke="rgba(16,32,51,0.08)" /><rect x="512.4285714285714" y="782.08" width="58" height="29.92" rx="24" fill="url(#gameFill4)" /><rect x="512.4285714285714" y="595.08" width="58" height="187" rx="24" fill="url(#companyFill4)" /><text x="541.4285714285714" y="583.08" text-anchor="middle" font-size="18" font-weight="900" fill="#102033">29</text><text x="541.4285714285714" y="846" text-anchor="middle" font-size="18" font-weight="820" fill="#102033">03/12</text><text x="541.4285714285714" y="868" text-anchor="middle" font-size="13" fill="#54697a">2026-03-12</text><rect x="505.42857142857144" y="884" width="72" height="30" rx="15" fill="#ffd36e" /><text x="541.4285714285714" y="904" text-anchor="middle" font-size="12.5" font-weight="800" fill="#102033">Pivot</text></g><g><rect x="603.8571428571428" y="438" width="58" height="374" rx="24" fill="rgba(255,255,255,0.58)" stroke="rgba(16,32,51,0.08)" /><rect x="603.8571428571428" y="587.6" width="58" height="224.4" rx="24" fill="url(#companyFill4)" /><text x="632.8571428571428" y="575.6" text-anchor="middle" font-size="18" font-weight="900" fill="#102033">30</text><text x="632.8571428571428" y="846" text-anchor="middle" font-size="18" font-weight="820" fill="#102033">03/13</text><text x="632.8571428571428" y="868" text-anchor="middle" font-size="13" fill="#54697a">2026-03-13</text><rect x="596.8571428571428" y="884" width="72" height="30" rx="15" fill="#102033" /><text x="632.8571428571428" y="904" text-anchor="middle" font-size="12.5" font-weight="800" fill="#ffffff">Gate</text></g><g><rect x="695.2857142857142" y="438" width="58" height="374" rx="24" fill="rgba(255,255,255,0.58)" stroke="rgba(16,32,51,0.08)" /><rect x="695.2857142857142" y="767.12" width="58" height="44.879999999999995" rx="24" fill="url(#gameFill4)" /><rect x="695.2857142857142" y="542.72" width="58" height="224.4" rx="24" fill="url(#companyFill4)" /><text x="724.2857142857142" y="530.72" text-anchor="middle" font-size="18" font-weight="900" fill="#102033">36</text><text x="724.2857142857142" y="846" text-anchor="middle" font-size="18" font-weight="820" fill="#102033">03/14</text><text x="724.2857142857142" y="868" text-anchor="middle" font-size="13" fill="#54697a">2026-03-14</text><rect x="679.0857142857142" y="884" width="90.39999999999999" height="30" rx="15" fill="#18b6d1" /><text x="724.2857142857142" y="904" text-anchor="middle" font-size="12.5" font-weight="800" fill="#102033">Dodge60</text></g><g><rect x="786.7142857142857" y="438" width="58" height="374" rx="24" fill="rgba(255,255,255,0.58)" stroke="rgba(16,32,51,0.08)" /><rect x="786.7142857142857" y="677.36" width="58" height="134.64" rx="24" fill="url(#gameFill4)" /><rect x="786.7142857142857" y="445.48" width="58" height="231.88" rx="24" fill="url(#companyFill4)" /><text x="815.7142857142857" y="433.48" text-anchor="middle" font-size="18" font-weight="900" fill="#102033">49</text><text x="815.7142857142857" y="846" text-anchor="middle" font-size="18" font-weight="820" fill="#102033">03/15</text><text x="815.7142857142857" y="868" text-anchor="middle" font-size="13" fill="#54697a">2026-03-15</text><rect x="756.7142857142857" y="884" width="118" height="30" rx="15" fill="#ffd36e" /><text x="815.7142857142857" y="904" text-anchor="middle" font-size="12.5" font-weight="800" fill="#102033">Dual-track</text></g><g><rect x="878.1428571428571" y="438" width="58" height="374" rx="24" fill="rgba(255,255,255,0.58)" stroke="rgba(16,32,51,0.08)" /><rect x="878.1428571428571" y="729.72" width="58" height="82.28" rx="24" fill="url(#gameFill4)" /><rect x="878.1428571428571" y="542.72" width="58" height="187" rx="24" fill="url(#companyFill4)" /><text x="907.1428571428571" y="530.72" text-anchor="middle" font-size="18" font-weight="900" fill="#102033">36</text><text x="907.1428571428571" y="846" text-anchor="middle" font-size="18" font-weight="820" fill="#102033">03/16</text><text x="907.1428571428571" y="868" text-anchor="middle" font-size="13" fill="#54697a">2026-03-16</text><rect x="857.3428571428572" y="884" width="99.6" height="30" rx="15" fill="#18b6d1" /><text x="907.1428571428571" y="904" text-anchor="middle" font-size="12.5" font-weight="800" fill="#102033">Ship day</text></g><g><rect x="969.5714285714286" y="438" width="58" height="374" rx="24" fill="rgba(255,255,255,0.58)" stroke="rgba(16,32,51,0.08)" /><rect x="969.5714285714286" y="610.04" width="58" height="201.96" rx="24" fill="url(#companyFill4)" /><text x="998.5714285714286" y="598.04" text-anchor="middle" font-size="18" font-weight="900" fill="#102033">27</text><text x="998.5714285714286" y="846" text-anchor="middle" font-size="18" font-weight="820" fill="#102033">03/17</text><text x="998.5714285714286" y="868" text-anchor="middle" font-size="13" fill="#54697a">2026-03-17</text><rect x="934.9714285714285" y="884" width="127.19999999999999" height="30" rx="15" fill="#102033" /><text x="998.5714285714286" y="904" text-anchor="middle" font-size="12.5" font-weight="800" fill="#ffffff">Scoped only</text></g><g><rect x="1061" y="438" width="58" height="374" rx="24" fill="rgba(255,255,255,0.58)" stroke="rgba(16,32,51,0.08)" /><line x1="1069" y1="794" x2="1111" y2="794" stroke="#b9cad5" stroke-width="2" stroke-dasharray="6 6" /><text x="1090" y="782" text-anchor="middle" font-size="18" font-weight="900" fill="#54697a">0</text><text x="1090" y="846" text-anchor="middle" font-size="18" font-weight="820" fill="#102033">03/18</text><text x="1090" y="868" text-anchor="middle" font-size="13" fill="#54697a">2026-03-18</text></g><g><rect x="1152.4285714285716" y="438" width="58" height="374" rx="24" fill="rgba(255,255,255,0.58)" stroke="rgba(16,32,51,0.08)" /><rect x="1152.4285714285716" y="722.24" width="58" height="89.75999999999999" rx="24" fill="url(#companyFill4)" /><text x="1181.4285714285716" y="710.24" text-anchor="middle" font-size="18" font-weight="900" fill="#102033">12</text><text x="1181.4285714285716" y="846" text-anchor="middle" font-size="18" font-weight="820" fill="#102033">03/19</text><text x="1181.4285714285716" y="868" text-anchor="middle" font-size="13" fill="#54697a">2026-03-19</text><rect x="1140.8285714285716" y="884" width="81.19999999999999" height="30" rx="15" fill="#8dd7ff" /><text x="1181.4285714285716" y="904" text-anchor="middle" font-size="12.5" font-weight="800" fill="#102033">Polish</text></g><g><rect x="1243.857142857143" y="438" width="58" height="374" rx="24" fill="rgba(255,255,255,0.58)" stroke="rgba(16,32,51,0.08)" /><line x1="1251.857142857143" y1="794" x2="1293.857142857143" y2="794" stroke="#b9cad5" stroke-width="2" stroke-dasharray="6 6" /><text x="1272.857142857143" y="782" text-anchor="middle" font-size="18" font-weight="900" fill="#54697a">0</text><text x="1272.857142857143" y="846" text-anchor="middle" font-size="18" font-weight="820" fill="#102033">03/20</text><text x="1272.857142857143" y="868" text-anchor="middle" font-size="13" fill="#54697a">2026-03-20</text></g><g><rect x="1335.2857142857144" y="438" width="58" height="374" rx="24" fill="rgba(255,255,255,0.58)" stroke="rgba(16,32,51,0.08)" /><line x1="1343.2857142857144" y1="794" x2="1385.2857142857144" y2="794" stroke="#b9cad5" stroke-width="2" stroke-dasharray="6 6" /><text x="1364.2857142857144" y="782" text-anchor="middle" font-size="18" font-weight="900" fill="#54697a">0</text><text x="1364.2857142857144" y="846" text-anchor="middle" font-size="18" font-weight="820" fill="#102033">03/21</text><text x="1364.2857142857144" y="868" text-anchor="middle" font-size="13" fill="#54697a">2026-03-21</text></g>
    
    <g transform="translate(1460 418)">
      <rect x="0" y="0" width="320" height="206" rx="30" fill="rgba(255,255,255,0.94)" stroke="rgba(16,32,51,0.08)" />
      <rect x="26" y="28" width="20" height="20" rx="6" fill="url(#gameFill4)" />
      <text x="58" y="44" font-size="18" font-weight="860" fill="#102033">Gameplay child repos</text>
      <text x="58" y="66" font-size="14" fill="#54697a">product-facing implementation</text>
      <rect x="26" y="84" width="20" height="20" rx="6" fill="url(#companyFill4)" />
      <text x="58" y="100" font-size="18" font-weight="860" fill="#102033">Company repo</text>
      <text x="58" y="122" font-size="14" fill="#54697a">memory, rules, planning, in-main work</text>
      <text x="26" y="158" font-size="16" font-weight="860" fill="#102033">Peak notes</text>
      <text x="26" y="181" font-size="14" fill="#54697a">03/12: static-first onigame-* pivot</text>
      <text x="26" y="202" font-size="14" fill="#54697a">03/15: strongest combined pulse = 49</text>
      <text x="26" y="223" font-size="14" fill="#54697a">03/17: scoped, still no hard artifact</text>
    </g>
  
    
    <g transform="translate(1460 642)">
      <rect x="0" y="0" width="320" height="220" rx="30" fill="rgba(255,255,255,0.94)" stroke="rgba(16,32,51,0.08)" />
      <text x="26" y="38" font-size="20" font-weight="900" fill="#102033">Interpretation</text>
      <text x="26" y="68" font-size="14" fill="#54697a">03/08-03/11 = company OS plus in-main prototype work.</text>
      <text x="26" y="96" font-size="14" fill="#54697a">Child-repo delivery wakes up on 03/12.</text>
      <text x="26" y="124" font-size="14" fill="#54697a">03/13 adds execution guardrails before the burst.</text>
      <text x="26" y="152" font-size="14" fill="#54697a">Quiet days stay quiet; no backfill claims.</text>
      <rect x="26" y="178" width="250" height="28" rx="14" fill="#eef5fa" />
      <text x="151" y="197" text-anchor="middle" font-size="13" font-weight="800" fill="#102033">Evidence-heavy, no overclaiming</text>
    </g>
  
    <text x="130" y="936" font-size="27" font-weight="920" fill="#102033" font-family="'Segoe UI Variable','Aptos','Yu Gothic UI',sans-serif">Milestone rhythm</text>
    
      <g>
        <rect x="130" y="964" width="530" height="84" rx="28" fill="#d5f0ff" />
        <text x="154" y="992" font-size="15" font-weight="800" fill="#102033" opacity="0.75">03/08</text>
        <text x="154" y="1022" font-size="22" font-weight="900" fill="#102033">Company OS foundation</text>
      </g>
    
      <g>
        <rect x="686" y="964" width="530" height="84" rx="28" fill="#ffd36e" />
        <text x="710" y="992" font-size="15" font-weight="800" fill="#102033" opacity="0.75">03/12</text>
        <text x="710" y="1022" font-size="22" font-weight="900" fill="#102033">Static-first pivot + Omikuji</text>
      </g>
    
      <g>
        <rect x="1242" y="964" width="530" height="84" rx="28" fill="#102033" />
        <text x="1266" y="992" font-size="15" font-weight="800" fill="#ffffff" opacity="0.75">03/13</text>
        <text x="1266" y="1022" font-size="22" font-weight="900" fill="#ffffff">Implementation Gate + runtime health</text>
      </g>
    
      <g>
        <rect x="130" y="1068" width="530" height="84" rx="28" fill="#1fb6d5" />
        <text x="154" y="1096" font-size="15" font-weight="800" fill="#102033" opacity="0.75">03/14</text>
        <text x="154" y="1126" font-size="22" font-weight="900" fill="#102033">Dodge60 live lane starts</text>
      </g>
    
      <g>
        <rect x="686" y="1068" width="530" height="84" rx="28" fill="#0d8fa9" />
        <text x="710" y="1096" font-size="15" font-weight="800" fill="#ffffff" opacity="0.75">03/16</text>
        <text x="710" y="1126" font-size="22" font-weight="900" fill="#ffffff">One Stroke Sweep shipped</text>
      </g>
    
      <g>
        <rect x="1242" y="1068" width="530" height="84" rx="28" fill="#8dd7ff" />
        <text x="1266" y="1096" font-size="15" font-weight="800" fill="#102033" opacity="0.75">03/19</text>
        <text x="1266" y="1126" font-size="22" font-weight="900" fill="#102033">Repository polish + showcase</text>
      </g>
    
    <text x="130" y="1160" font-size="15" fill="#54697a" font-family="'Segoe UI Variable','Aptos','Yu Gothic UI',sans-serif">Evidence rule: days without a local daily folder are shown explicitly as quiet or missing-record days instead of being inferred from later snapshots.</text>
  </svg>