<svg xmlns="http://www.w3.org/2000/svg" width="1600" height="980" viewBox="0 0 1600 980" role="img" aria-labelledby="title desc">
  <title id="title">Weekly activity report for 2026-03-14 through 2026-03-21</title>
  <desc id="desc">A styled activity chart comparing company repository commit volume and gameplay child repository commit volume for each day from March 14 to March 21, 2026.</desc>
  <defs>
    <linearGradient id="bg2" x1="0" y1="0" x2="1" y2="1">
      <stop offset="0%" stop-color="#f8fcff" />
      <stop offset="56%" stop-color="#eef8ff" />
      <stop offset="100%" stop-color="#fff8e7" />
    </linearGradient>
    <linearGradient id="companyFill2" x1="0" y1="0" x2="0" y2="1">
      <stop offset="0%" stop-color="#ffcc4f" />
      <stop offset="100%" stop-color="#f6a81f" />
    </linearGradient>
    <linearGradient id="gameFill2" x1="0" y1="0" x2="0" y2="1">
      <stop offset="0%" stop-color="#13b3ce" />
      <stop offset="100%" stop-color="#0b7d98" />
    </linearGradient>
    <filter id="shadow2" x="-20%" y="-20%" width="140%" height="140%">
      <feDropShadow dx="0" dy="16" stdDeviation="18" flood-color="#7aa8bf" flood-opacity="0.18" />
    </filter>
    <pattern id="dots2" patternUnits="userSpaceOnUse" width="22" height="22">
      <circle cx="2" cy="2" r="1.2" fill="#d8e8f2" opacity="0.75" />
    </pattern>
  </defs>

  <rect width="1600" height="980" fill="url(#bg2)" />
  <rect width="1600" height="980" fill="url(#dots2)" opacity="0.28" />
  <circle cx="1360" cy="90" r="220" fill="#13b3ce" opacity="0.08" />
  <circle cx="130" cy="860" r="220" fill="#ffcc4f" opacity="0.12" />

  <g filter="url(#shadow2)">
    <rect x="48" y="42" width="1504" height="896" rx="42" fill="rgba(255,255,255,0.76)" stroke="rgba(15,31,58,0.08)" />
  </g>

  <text x="120" y="110" font-size="28" font-weight="800" fill="#50697c">ONIZUKA Game AGI Co. Memory Report</text>
  <text x="120" y="160" font-size="54" font-weight="900" fill="#101926">2026-03-14 → 2026-03-21 Activity Pulse</text>
  <text x="120" y="204" font-size="24" fill="#50697c">Tracked commit volume and delivery posture across company memory and gameplay child repos</text>

  
    <g>
      <rect x="120" y="238" width="240" height="122" rx="24" fill="rgba(255,255,255,0.92)" stroke="rgba(16,25,38,0.08)" />
      <rect x="138" y="256" width="12" height="86" rx="6" fill="#ffcc4f" />
      <text x="168" y="280" font-size="20" font-weight="700" fill="#50697c">Company repo commits</text>
      <text x="168" y="324" font-size="46" font-weight="900" fill="#101926">125</text>
      <text x="168" y="350" font-size="17" fill="#50697c">meetings, docs, rules</text>
    </g>
  
  
    <g>
      <rect x="390" y="238" width="240" height="122" rx="24" fill="rgba(255,255,255,0.92)" stroke="rgba(16,25,38,0.08)" />
      <rect x="408" y="256" width="12" height="86" rx="6" fill="#13b3ce" />
      <text x="438" y="280" font-size="20" font-weight="700" fill="#50697c">Gameplay repo commits</text>
      <text x="438" y="324" font-size="46" font-weight="900" fill="#101926">35</text>
      <text x="438" y="350" font-size="17" fill="#50697c">3 child repos</text>
    </g>
  
  
    <g>
      <rect x="660" y="238" width="240" height="122" rx="24" fill="rgba(255,255,255,0.92)" stroke="rgba(16,25,38,0.08)" />
      <rect x="678" y="256" width="12" height="86" rx="6" fill="#77e6d9" />
      <text x="708" y="280" font-size="20" font-weight="700" fill="#50697c">Bootstraps confirmed</text>
      <text x="708" y="324" font-size="46" font-weight="900" fill="#101926">3</text>
      <text x="708" y="350" font-size="17" fill="#50697c">fresh playable repos</text>
    </g>
  
  
    <g>
      <rect x="930" y="238" width="240" height="122" rx="24" fill="rgba(255,255,255,0.92)" stroke="rgba(16,25,38,0.08)" />
      <rect x="948" y="256" width="12" height="86" rx="6" fill="#0f1f3a" />
      <text x="978" y="280" font-size="20" font-weight="700" fill="#50697c">No daily-record days</text>
      <text x="978" y="324" font-size="46" font-weight="900" fill="#101926">3</text>
      <text x="978" y="350" font-size="17" fill="#50697c">03/18, 03/20, 03/21</text>
    </g>
  

  <text x="120" y="382" font-size="26" font-weight="900" fill="#101926">Daily tracked activity</text>
  <text x="120" y="406" font-size="18" fill="#50697c">Stacked bars: cyan = gameplay repos, amber = company repo</text>

  
    <line x1="120" y1="690" x2="1240" y2="690" stroke="#b8cad7" stroke-width="2.2" />
    <text x="102" y="697" text-anchor="end" font-size="18" fill="#50697c">0</text>
  

    <line x1="120" y1="633.6" x2="1240" y2="633.6" stroke="#d6e4ed" stroke-width="1.2" />
    <text x="102" y="640.6" text-anchor="end" font-size="18" fill="#50697c">10</text>
  

    <line x1="120" y1="577.2" x2="1240" y2="577.2" stroke="#d6e4ed" stroke-width="1.2" />
    <text x="102" y="584.2" text-anchor="end" font-size="18" fill="#50697c">20</text>
  

    <line x1="120" y1="520.8" x2="1240" y2="520.8" stroke="#d6e4ed" stroke-width="1.2" />
    <text x="102" y="527.8" text-anchor="end" font-size="18" fill="#50697c">30</text>
  

    <line x1="120" y1="464.4" x2="1240" y2="464.4" stroke="#d6e4ed" stroke-width="1.2" />
    <text x="102" y="471.4" text-anchor="end" font-size="18" fill="#50697c">40</text>
  

    <line x1="120" y1="408" x2="1240" y2="408" stroke="#d6e4ed" stroke-width="1.2" />
    <text x="102" y="415" text-anchor="end" font-size="18" fill="#50697c">50</text>
  
  
    <g>
      <rect x="162" y="408" width="88" height="282" rx="28" fill="rgba(255,255,255,0.55)" stroke="rgba(16,25,38,0.08)" />
      <rect x="162" y="656.16" width="88" height="33.839999999999996" rx="28" fill="url(#gameFill2)" />
      <rect x="162" y="486.96" width="88" height="169.2" rx="28" fill="url(#companyFill2)" />
      
      <text x="206" y="474.96" text-anchor="middle" font-size="20" font-weight="800" fill="#101926">36</text>
      <text x="206" y="728" text-anchor="middle" font-size="20" font-weight="800" fill="#101926">03/14</text>
      <text x="206" y="754" text-anchor="middle" font-size="14" fill="#50697c">2026-03-14</text>
      <rect x="142" y="770" width="128" height="32" rx="16" fill="#13b3ce" opacity="0.86" />
      <text x="206" y="791" text-anchor="middle" font-size="13" font-weight="800" fill="#101926">Dodge60 start</text>
    </g>
  

    <g>
      <rect x="294" y="408" width="88" height="282" rx="28" fill="rgba(255,255,255,0.55)" stroke="rgba(16,25,38,0.08)" />
      <rect x="294" y="588.48" width="88" height="101.52" rx="28" fill="url(#gameFill2)" />
      <rect x="294" y="413.64" width="88" height="174.84" rx="28" fill="url(#companyFill2)" />
      
      <text x="338" y="401.64" text-anchor="middle" font-size="20" font-weight="800" fill="#101926">49</text>
      <text x="338" y="728" text-anchor="middle" font-size="20" font-weight="800" fill="#101926">03/15</text>
      <text x="338" y="754" text-anchor="middle" font-size="14" fill="#50697c">2026-03-15</text>
      <rect x="204.60000000000002" y="770" width="266.79999999999995" height="32" rx="16" fill="#ffcc4f" opacity="0.86" />
      <text x="338" y="791" text-anchor="middle" font-size="13" font-weight="800" fill="#101926">Dual-track + Lane Flip Sprint</text>
    </g>
  

    <g>
      <rect x="426" y="408" width="88" height="282" rx="28" fill="rgba(255,255,255,0.55)" stroke="rgba(16,25,38,0.08)" />
      <rect x="426" y="627.96" width="88" height="62.04" rx="28" fill="url(#gameFill2)" />
      <rect x="426" y="486.96000000000004" width="88" height="141" rx="28" fill="url(#companyFill2)" />
      
      <text x="470" y="474.96000000000004" text-anchor="middle" font-size="20" font-weight="800" fill="#101926">36</text>
      <text x="470" y="728" text-anchor="middle" font-size="20" font-weight="800" fill="#101926">03/16</text>
      <text x="470" y="754" text-anchor="middle" font-size="14" fill="#50697c">2026-03-16</text>
      <rect x="368.8" y="770" width="202.39999999999998" height="32" rx="16" fill="#ffcc4f" opacity="0.86" />
      <text x="470" y="791" text-anchor="middle" font-size="13" font-weight="800" fill="#101926">One Stroke Sweep birth</text>
    </g>
  

    <g>
      <rect x="558" y="408" width="88" height="282" rx="28" fill="rgba(255,255,255,0.55)" stroke="rgba(16,25,38,0.08)" />
      
      <rect x="558" y="537.72" width="88" height="152.28" rx="28" fill="url(#companyFill2)" />
      
      <text x="602" y="525.72" text-anchor="middle" font-size="20" font-weight="800" fill="#101926">27</text>
      <text x="602" y="728" text-anchor="middle" font-size="20" font-weight="800" fill="#101926">03/17</text>
      <text x="602" y="754" text-anchor="middle" font-size="14" fill="#50697c">2026-03-17</text>
      <rect x="491.6" y="770" width="220.79999999999998" height="32" rx="16" fill="#0f1f3a" opacity="0.96" />
      <text x="602" y="791" text-anchor="middle" font-size="13" font-weight="800" fill="#ffffff">Pocket Putt Panic scoped</text>
    </g>
  

    <g>
      <rect x="690" y="408" width="88" height="282" rx="28" fill="rgba(255,255,255,0.55)" stroke="rgba(16,25,38,0.08)" />
      
      
      <line x1="698" y1="668" x2="770" y2="668" stroke="#b8cad7" stroke-width="2" stroke-dasharray="6 6" />
      <text x="734" y="656" text-anchor="middle" font-size="20" font-weight="800" fill="#50697c">0</text>
      <text x="734" y="728" text-anchor="middle" font-size="20" font-weight="800" fill="#101926">03/18</text>
      <text x="734" y="754" text-anchor="middle" font-size="14" fill="#50697c">2026-03-18</text>
      <rect x="637.4" y="770" width="193.2" height="32" rx="16" fill="#dce8ef" opacity="0.86" />
      <text x="734" y="791" text-anchor="middle" font-size="13" font-weight="800" fill="#101926">No local daily record</text>
    </g>
  

    <g>
      <rect x="822" y="408" width="88" height="282" rx="28" fill="rgba(255,255,255,0.55)" stroke="rgba(16,25,38,0.08)" />
      
      <rect x="822" y="622.32" width="88" height="67.67999999999999" rx="28" fill="url(#companyFill2)" />
      
      <text x="866" y="610.32" text-anchor="middle" font-size="20" font-weight="800" fill="#101926">12</text>
      <text x="866" y="728" text-anchor="middle" font-size="20" font-weight="800" fill="#101926">03/19</text>
      <text x="866" y="754" text-anchor="middle" font-size="14" fill="#50697c">2026-03-19</text>
      <rect x="787.8" y="770" width="156.39999999999998" height="32" rx="16" fill="#7dc7f0" opacity="0.86" />
      <text x="866" y="791" text-anchor="middle" font-size="13" font-weight="800" fill="#101926">Repository polish</text>
    </g>
  

    <g>
      <rect x="954" y="408" width="88" height="282" rx="28" fill="rgba(255,255,255,0.55)" stroke="rgba(16,25,38,0.08)" />
      
      
      <line x1="962" y1="668" x2="1034" y2="668" stroke="#b8cad7" stroke-width="2" stroke-dasharray="6 6" />
      <text x="998" y="656" text-anchor="middle" font-size="20" font-weight="800" fill="#50697c">0</text>
      <text x="998" y="728" text-anchor="middle" font-size="20" font-weight="800" fill="#101926">03/20</text>
      <text x="998" y="754" text-anchor="middle" font-size="14" fill="#50697c">2026-03-20</text>
      <rect x="915.2" y="770" width="165.6" height="32" rx="16" fill="#dce8ef" opacity="0.86" />
      <text x="998" y="791" text-anchor="middle" font-size="13" font-weight="800" fill="#101926">Runtime check only</text>
    </g>
  

    <g>
      <rect x="1086" y="408" width="88" height="282" rx="28" fill="rgba(255,255,255,0.55)" stroke="rgba(16,25,38,0.08)" />
      
      
      <line x1="1094" y1="668" x2="1166" y2="668" stroke="#b8cad7" stroke-width="2" stroke-dasharray="6 6" />
      <text x="1130" y="656" text-anchor="middle" font-size="20" font-weight="800" fill="#50697c">0</text>
      <text x="1130" y="728" text-anchor="middle" font-size="20" font-weight="800" fill="#101926">03/21</text>
      <text x="1130" y="754" text-anchor="middle" font-size="14" fill="#50697c">2026-03-21</text>
      <rect x="1047.2" y="770" width="165.6" height="32" rx="16" fill="#dce8ef" opacity="0.86" />
      <text x="1130" y="791" text-anchor="middle" font-size="13" font-weight="800" fill="#101926">Runtime check only</text>
    </g>
  

  <g transform="translate(1270 430)">
    <rect x="0" y="0" width="210" height="132" rx="28" fill="rgba(255,255,255,0.94)" stroke="rgba(16,25,38,0.08)" />
    <rect x="22" y="24" width="20" height="20" rx="6" fill="url(#gameFill2)" />
    <text x="56" y="40" font-size="18" font-weight="800" fill="#101926">Gameplay child repos</text>
    <text x="56" y="62" font-size="15" fill="#50697c">product-facing implementation</text>
    <rect x="22" y="80" width="20" height="20" rx="6" fill="url(#companyFill2)" />
    <text x="56" y="96" font-size="18" font-weight="800" fill="#101926">Company repo</text>
    <text x="56" y="118" font-size="15" fill="#50697c">memory, planning, docs</text>
  </g>

  <text x="120" y="836" font-size="26" font-weight="900" fill="#101926">Milestone rhythm</text>
  
    <g>
      <rect x="120" y="860" width="246" height="92" rx="28" fill="#13b3ce" />
      <text x="144" y="852" font-size="16" font-weight="800" fill="#101926" opacity="0.76">03/14</text>
      <text x="144" y="884" font-size="22" font-weight="900" fill="#101926">Dodge60 bootstrap</text>
    </g>
  

    <g>
      <rect x="400" y="860" width="246" height="92" rx="28" fill="#ffcc4f" />
      <text x="424" y="852" font-size="16" font-weight="800" fill="#101926" opacity="0.76">03/15</text>
      <text x="424" y="884" font-size="22" font-weight="900" fill="#101926">Lane Flip Sprint bootstrap</text>
    </g>
  

    <g>
      <rect x="680" y="860" width="246" height="92" rx="28" fill="#0b91ae" />
      <text x="704" y="852" font-size="16" font-weight="800" fill="#ffffff" opacity="0.76">03/16</text>
      <text x="704" y="884" font-size="22" font-weight="900" fill="#ffffff">One Stroke Sweep shipped</text>
    </g>
  

    <g>
      <rect x="960" y="860" width="246" height="92" rx="28" fill="#0f1f3a" />
      <text x="984" y="852" font-size="16" font-weight="800" fill="#ffffff" opacity="0.76">03/17</text>
      <text x="984" y="884" font-size="22" font-weight="900" fill="#ffffff">Pocket Putt Panic scoped only</text>
    </g>
  

    <g>
      <rect x="1240" y="860" width="246" height="92" rx="28" fill="#7dc7f0" />
      <text x="1264" y="852" font-size="16" font-weight="800" fill="#101926" opacity="0.76">03/19</text>
      <text x="1264" y="884" font-size="22" font-weight="900" fill="#101926">Repository polish + showcase</text>
    </g>
  

  <text x="120" y="978" font-size="16" fill="#50697c">
    Evidence rule: days without a local daily folder are shown explicitly as quiet or missing-record days instead of being inferred from later snapshots.
  </text>
</svg>